Coordinates
version=1
nRows=19
nColumns=24
inDegrees=yes

Units are S.I. units (second, meters, Newtons, ...)
Angles are in degrees.

endheader
time	pelvis_tilt	pelvis_list	pelvis_rotation	pelvis_tx	pelvis_ty	pelvis_tz	hip_flexion_r	hip_adduction_r	hip_rotation_r	knee_angle_r	ankle_angle_r	subtalar_angle_r	mtp_angle_r	hip_flexion_l	hip_adduction_l	hip_rotation_l	knee_angle_l	ankle_angle_l	subtalar_angle_l	mtp_angle_l	lumbar_extension	lumbar_bending	lumbar_rotation
      1.83400000	      4.15445369	      2.92565786	     -4.87939838	      1.44460360	      1.03085831	      0.25979383	     12.27771909	     -5.90421223	     -4.85666920	    -64.13630137	      5.72990749	     -2.37046060	      0.17771927	      6.24796711	      8.83522874	      1.97420668	    -18.01902028	      7.89685843	    -12.80651321	      1.39542679	     -1.79525981	     -6.55345987	      3.84119908
      1.83816667	      4.21355722	      2.78922700	     -4.64710425	      1.44890693	      1.03155692	      0.25917874	     12.74130970	     -5.70952359	     -4.92473281	    -63.65340655	      6.06381182	     -2.43648785	      0.26221241	      5.79555962	      8.76653180	      2.28070068	    -17.82279584	      7.95749312	    -12.86267486	      1.36148777	     -1.99261261	     -6.40481619	      3.65823797
      1.84233333	      4.33173051	      2.66094369	     -4.43516064	      1.45333271	      1.03235977	      0.25857789	     13.11348508	     -5.53324627	     -4.98700758	    -63.10148292	      6.33702234	     -2.55651371	      0.37821192	      5.23717928	      8.71272513	      2.60571249	    -17.54608357	      7.96247077	    -12.99242864	      1.30367729	     -2.22323283	     -6.24769162	      3.33353837
      1.84650000	      4.40720428	      2.53240259	     -4.20373697	      1.45765275	      1.03304900	      0.25795987	     13.52826371	     -5.35468421	     -5.06417115	    -62.51792538	      6.58390519	     -2.73603534	      0.47533983	      4.75018119	      8.65054073	      2.93357494	    -17.31219892	      7.99543330	    -13.09775917	      1.24971945	     -2.41910872	     -6.08817608	      3.09950881
      1.85066667	      4.45937996	      2.39448547	     -3.97760819	      1.46202733	      1.03368031	      0.25734972	     13.94674201	     -5.16592972	     -5.14525544	    -61.88182387	      6.77676813	     -2.98316980	      0.56086922	      4.28612980	      8.57262757	      3.25276234	    -17.07743511	      8.02240665	    -13.21584521	      1.19460139	     -2.58261720	     -5.92049908	      2.85620124
      1.85483333	      4.55133951	      2.27286192	     -3.75141469	      1.46634596	      1.03432686	      0.25674384	     14.31319872	     -5.00077895	     -5.22703599	    -61.21025588	      6.99013710	     -3.24446684	      0.65078131	      3.78146995	      8.51119435	      3.57020136	    -16.83142649	      8.01816219	    -13.36032804	      1.12927591	     -2.79804217	     -5.77896018	      2.58838663
      1.85900000	      4.60620342	      2.12796859	     -3.51316467	      1.47070799	      1.03492355	      0.25612736	     14.69048505	     -4.80906529	     -5.32668895	    -60.47212360	      7.15135825	     -3.55293853	      0.71525827	      3.32328163	      8.41807969	      3.89282691	    -16.61322475	      8.06224031	    -13.45704812	      1.07491292	     -2.96049416	     -5.59387713	      2.35353129
      1.86316667	      4.65308595	      2.00610013	     -3.28161064	      1.47500728	      1.03543743	      0.25552657	     15.07694558	     -4.64303394	     -5.41620849	    -59.71395802	      7.32570073	     -3.87966161	      0.77851837	      2.88192445	      8.34593245	      4.20749476	    -16.38986130	      8.05762552	    -13.61073114	      1.00912303	     -3.12174237	     -5.44368485	      2.11221911
      1.86733333	      4.71694950	      1.86886599	     -3.03755735	      1.47932167	      1.03597193	      0.25490066	     15.41800769	     -4.46576194	     -5.51974266	    -58.89857843	      7.43611420	     -4.21342025	      0.81127123	      2.42100573	      8.25430161	      4.52722922	    -16.17351628	      8.10873677	    -13.70783308	      0.96130905	     -3.29693354	     -5.26416873	      1.88918336
      1.87150000	      4.75843407	      1.74445333	     -2.81174412	      1.48363688	      1.03644328	      0.25432041	     15.77295225	     -4.29583901	     -5.60420896	    -58.04625439	      7.54884222	     -4.59009674	      0.83993949	      1.98771165	      8.17164869	      4.84059769	    -15.95516508	      8.09883095	    -13.86261606	      0.89261673	     -3.44850078	     -5.10543993	      1.63984772
      1.87566667	      4.78428385	      1.62147559	     -2.59053776	      1.48794711	      1.03684975	      0.25374479	     16.13138045	     -4.13002959	     -5.68543355	    -57.15882214	      7.62337666	     -4.92003753	      0.84307032	      1.57291942	      8.08459471	      5.13698655	    -15.73765122	      8.15335132	    -13.96743776	      0.85042937	     -3.55956340	     -4.94107327	      1.46486393
      1.87983333	      4.79691648	      1.51118133	     -2.37011458	      1.49224687	      1.03720965	      0.25318965	     16.49596881	     -3.97239888	     -5.75433579	    -56.24040692	      7.68664102	     -5.30568624	      0.83384601	      1.18170372	      8.00767200	      5.43293077	    -15.53282065	      8.13775181	    -14.12713773	      0.79062929	     -3.68675525	     -4.79384236	      1.22143463
      1.88400000	      4.81535520	      1.38536023	     -2.15496154	      1.49657395	      1.03756113	      0.25264363	     16.82860408	     -3.80178786	     -5.82779294	    -55.26589786	      7.70194270	     -5.63756083	      0.81230708	      0.78037004	      7.90959190	      5.72143118	    -15.32698662	      8.19406040	    -14.23718494	      0.75184536	     -3.78137425	     -4.62938051	      1.05347654
      1.88816667	      4.81666942	      1.27809880	     -1.93668162	      1.50089746	      1.03784286	      0.25211119	     17.16730125	     -3.64700381	     -5.88656537	    -54.27225364	      7.71097314	     -5.98707392	      0.77669630	      0.40450604	      7.82666216	      6.00326032	    -15.12903372	      8.21478779	    -14.36289320	      0.70987927	     -3.87402243	     -4.48296673	      0.84686423
      1.89233333	      4.82808345	      1.17194876	     -1.73433541	      1.50520885	      1.03811702	      0.25161132	     17.48535997	     -3.49139565	     -5.93376169	    -53.23768663	      7.70891840	     -6.31187692	      0.72496476	      0.01962969	      7.74231605	      6.27910148	    -14.92863491	      8.22972704	    -14.49285286	      0.66165064	     -3.98061696	     -4.33822696	      0.65322528
      1.89650000	      4.80024408	      1.07558193	     -1.52455154	      1.50950866	      1.03828747	      0.25111762	     17.83298482	     -3.34599147	     -5.97511151	    -52.18414854	      7.68749724	     -6.61625539	      0.65924151	     -0.31492934	      7.66305467	      6.55433984	    -14.74882190	      8.26001249	    -14.61161797	      0.61388140	     -4.04178085	     -4.20133108	      0.46426696
      1.90066667	      4.75864405	      0.97485249	     -1.30745050	      1.51382961	      1.03841538	      0.25062726	     18.17886513	     -3.19973480	     -6.02345157	    -51.09559805	      7.66845739	     -6.84570445	      0.61080720	     -0.61727602	      7.57248806	      6.79979444	    -14.60359270	      8.33331707	    -14.69130603	      0.58854364	     -4.07054166	     -4.06080459	      0.35141808
      1.90483333	      4.74953618	      0.90187212	     -1.13427002	      1.51819452	      1.03855882	      0.25021670	     18.47786744	     -3.06811996	     -6.01553298	    -49.98004424	      7.56390325	     -7.15828188	      0.52129949	     -0.99194868	      7.51215390	      7.05344997	    -14.38008322	      8.34138206	    -14.83001099	      0.54177811	     -4.13815648	     -3.96287575	      0.13674109
      1.90900000	      4.72029027	      0.82197441	     -0.93709671	      1.52252007	      1.03865168	      0.24978914	     18.78259179	     -2.93677201	     -6.02965976	    -48.83277474	      7.47556436	     -7.39099352	      0.42978381	     -1.31839207	      7.43837005	      7.30540495	    -14.20418599	      8.39067600	    -14.93467337	      0.50019331	     -4.18112203	     -3.85350905	     -0.03212625
